# xmcd
#
# Track frame offsets:
#	150
#	17065
#	33435
#	55235
#	70230
#	108000
#	128574
#	147539
#	165719
#	180486
#	206116
#	222524
#	240424
#	272771
#	290614
#
# Disc length: 4105 seconds
#
# Revision: 0
# Processed by: cddbd v1.5.1PL2 Copyright (c) Steve Scherf et al.
# Submitted via: dBpowerAMP V4.0
#
DISCID=e010070f
DTITLE=Various Artist - Good Whiskey Blues
DYEAR=1900
DGENRE=
TTITLE0=Doug Davis Band - Down Don`t Bother Me
TTITLE1=M. Henderson&The Blueboods - Ramblin` On My Mind
TTITLE2=Tombstone Bullets - Murdered By Love
TTITLE3=Beat Daddys - Livin` This Love
TTITLE4=Billy C. Farlow - A Little Meat On The Side
TTITLE5=Freddie and The Screamers - Full Moon On Main Street
TTITLE6=Hypnotics - Womanizer
TTITLE7=Zip Gibson - Smoking Hookah Blues
TTITLE8=Toler Brothers - Goin` Down Slow
TTITLE9=Bleu Jackson - Lightning
TTITLE10=Bleu Jackson - You Left Your Mark On Me 
TTITLE11=Jim Liban - Skin Hunger
TTITLE12=Mojo Men - Midnight Drag
TTITLE13=Homesick James - 12 Year Old Boy
TTITLE14=Steddy Eddy - Blue Train
EXTD=
EXTT0=
EXTT1=
EXTT2=
EXTT3=
EXTT4=
EXTT5=
EXTT6=
EXTT7=
EXTT8=
EXTT9=
EXTT10=
EXTT11=
EXTT12=
EXTT13=
EXTT14=
PLAYORDER=
